<svg id="Layer_1" enable-background="new 0 0 512 512" height="512" viewBox="0 0 512 512" width="512" xmlns="http://www.w3.org/2000/svg"><g><path d="m354.68 84.985h21.212v99.547c0 4.142 3.357 7.5 7.5 7.5s7.5-3.358 7.5-7.5v-107.047c0-4.142-3.357-7.5-7.5-7.5h-28.712c-4.143 0-7.5 3.358-7.5 7.5s3.358 7.5 7.5 7.5z"/><path d="m135.68 482.003h219c4.143 0 7.5-3.358 7.5-7.5s-3.357-7.5-7.5-7.5h-219c-4.143 0-7.5 3.358-7.5 7.5s3.358 7.5 7.5 7.5z"/><path d="m354.68 137.671c4.143 0 7.5-3.358 7.5-7.5v-22.879c0-4.142-3.357-7.5-7.5-7.5s-7.5 3.358-7.5 7.5v22.879c0 4.142 3.358 7.5 7.5 7.5z"/><path d="m290.113 252.527c-13.925 0-25.253 11.327-25.253 25.25s11.328 25.25 25.253 25.25c13.924 0 25.252-11.327 25.252-25.25s-11.328-25.25-25.252-25.25zm0 35.501c-5.653 0-10.253-4.598-10.253-10.25s4.6-10.25 10.253-10.25 10.252 4.598 10.252 10.25-4.599 10.25-10.252 10.25z"/><path d="m178.338 340.418c0 12.406 10.094 22.499 22.5 22.499s22.5-10.093 22.5-22.499-10.094-22.499-22.5-22.499-22.5 10.093-22.5 22.499zm30 0c0 4.135-3.364 7.499-7.5 7.499s-7.5-3.364-7.5-7.499 3.364-7.499 7.5-7.499 7.5 3.364 7.5 7.499z"/><path d="m262.123 383.122c0 17.223 14.013 31.235 31.237 31.235s31.238-14.012 31.238-31.235-14.014-31.235-31.238-31.235-31.237 14.012-31.237 31.235zm47.475 0c0 8.952-7.284 16.235-16.238 16.235-8.953 0-16.237-7.283-16.237-16.235s7.284-16.235 16.237-16.235c8.954 0 16.238 7.283 16.238 16.235z"/><path d="m457.093 313.79c4.143 0 7.5-3.358 7.5-7.5v-12.379c0-19.464-15.836-35.299-35.302-35.299h-38.399v-39.967c0-4.142-3.357-7.5-7.5-7.5s-7.5 3.358-7.5 7.5v255.859c0 4.142 3.357 7.5 7.5 7.5 2.07 0 3.999.826 5.429 2.325 1.428 1.497 2.16 3.466 2.062 5.546-.185 3.929-3.734 7.125-7.914 7.125h-276.577c-4.179 0-7.729-3.197-7.915-7.127-.098-2.079.635-4.048 2.063-5.545 1.43-1.499 3.358-2.325 5.429-2.325 4.143 0 7.5-3.358 7.5-7.5v-251.33c0-4.142-3.357-7.5-7.5-7.5s-7.5 3.358-7.5 7.5v245.126c-3.305 1.171-6.331 3.105-8.782 5.675-4.286 4.493-6.485 10.39-6.192 16.604.565 12.013 10.623 21.422 22.897 21.422h276.576c12.275 0 22.334-9.41 22.897-21.42.294-6.215-1.905-12.113-6.191-16.605-2.451-2.57-5.478-4.504-8.782-5.675v-15.562h38.399c19.466 0 35.302-15.835 35.302-35.299v-76.417c0-4.142-3.357-7.5-7.5-7.5s-7.5 3.358-7.5 7.5v76.417c0 11.193-9.107 20.299-20.302 20.299h-38.399v-14.998h36.201c4.143 0 7.5-3.358 7.5-7.5v-119.132c0-4.142-3.357-7.5-7.5-7.5h-36.201v-14.997h38.399c11.194 0 20.302 9.106 20.302 20.299v12.379c0 4.143 3.358 7.501 7.5 7.501zm-37.5-10.182v104.132h-28.701v-104.132z"/><path d="m135.68 215.673c-4.143 0-7.5 3.358-7.5 7.5v221.916c0 4.142 3.357 7.5 7.5 7.5h34.038c4.143 0 7.5-3.358 7.5-7.5s-3.357-7.5-7.5-7.5h-26.538v-214.416c0-4.142-3.357-7.5-7.5-7.5z"/><path d="m197.178 445.089c0 4.142 3.357 7.5 7.5 7.5h150.002c4.143 0 7.5-3.358 7.5-7.5v-264.916c0-4.142-3.357-7.5-7.5-7.5s-7.5 3.358-7.5 7.5v257.416h-142.502c-4.142 0-7.5 3.358-7.5 7.5z"/><path d="m324.619 219.673c4.143 0 7.5-3.358 7.5-7.5v-182.673c0-4.142-3.357-7.5-7.5-7.5-65.334 0-100.076-5.544-133.675-10.906-34.176-5.454-69.515-11.094-136.037-11.094-4.143 0-7.5 3.358-7.5 7.5v248.491c0 4.142 3.357 7.5 7.5 7.5s7.5-3.358 7.5-7.5v-58.293c60.539.407 93.885 5.729 126.174 10.881 34.175 5.455 69.514 11.094 136.038 11.094zm-262.212-145.649c19.756.13 37.596.778 54.33 1.974.182.013.362.02.542.02 3.899 0 7.191-3.017 7.473-6.966.296-4.131-2.814-7.72-6.946-8.015-17.087-1.22-35.276-1.882-55.398-2.012v-44c60.542.407 93.884 5.729 126.174 10.881 32.868 5.245 66.813 10.663 128.538 11.069v44c-60.541-.407-93.886-5.729-126.176-10.882-11.779-1.879-23.959-3.823-37.301-5.513-4.112-.524-7.863 2.388-8.383 6.498-.521 4.109 2.389 7.862 6.498 8.383 13.102 1.66 25.16 3.584 36.821 5.445 32.868 5.245 66.813 10.662 128.54 11.069v44.984c-60.54-.407-93.885-5.729-126.175-10.881-32.868-5.245-66.813-10.662-128.537-11.069zm0 59.986c60.539.407 93.885 5.729 126.174 10.881 32.868 5.245 66.813 10.662 128.538 11.069v48.688c-60.543-.407-93.885-5.729-126.175-10.881-32.867-5.245-66.813-10.663-128.537-11.069z"/><circle cx="259.359" cy="330.541" r="7.5"/><circle cx="209.359" cy="264.531" r="7.5"/><circle cx="197.359" cy="400.541" r="7.5"/></g></svg>