<?xml version='1.0' encoding='utf-8'?>
<!DOCTYPE svg PUBLIC '-//W3C//DTD SVG 1.1//EN' 'http://www.w3.org/Graphics/SVG/1.1/DTD/svg11.dtd'>
<svg version="1.1" xmlns="http://www.w3.org/2000/svg" viewBox="0 0 512 512" xmlns:xlink="http://www.w3.org/1999/xlink" enable-background="new 0 0 512 512">
  <g>
    <path d="m127.7,138.2c-32,0-58.1,26.1-58.1,58.1 0,9.3 2.2,18.3 6.5,26.6 3.8,7.4 2.8,16.4-2.7,22.7-13.9,16.2-21.6,36.8-21.6,58 0,49.1 40,89.1 89.1,89.1h234.6c46.7,0 84.7-38 84.7-84.7 0-33.4-19.8-63.8-50.4-77.4-7.2-3.2-11.9-10.3-12.1-18.1-1.3-52.2-43.2-93.2-95.5-93.2-36.3,0-69,20.2-85.4,52.8-3.5,7-10.8,11.3-18.5,11.2-7.8-0.1-14.9-4.6-18.2-11.7-9.5-20.3-30.1-33.4-52.4-33.4zm247.7,295.3h-234.5c-71.6,0-129.9-58.2-129.9-129.8 0-26.6 8.3-52.6 23.5-74.3-3.8-10.6-5.7-21.8-5.7-33 0-54.5 44.4-98.9 98.9-98.9 26.7,0 52,11 70.3,29.5 25.6-30.5 63.3-48.5 104.2-48.5 70.3,0 127.6,52 135.4,120.5 38.9,22.2 63.4,63.7 63.4,109 0,69.2-56.3,125.5-125.6,125.5z"/>
  </g>
</svg>
