<?xml version="1.0"?>
<svg xmlns="http://www.w3.org/2000/svg" id="Capa_1" enable-background="new 0 0 512.02 512.02" height="512px" viewBox="0 0 512.02 512.02" width="512px" class=""><g><g id="XMLID_964_"><g id="XMLID_1363_"><path id="XMLID_222_" d="m395.007 295.577-138.997 177.357-138.997-177.357c-55.091-70.295-49.028-170.655 14.124-233.807 68.965-68.965 180.781-68.965 249.746 0 63.152 63.152 69.215 163.512 14.124 233.807z" fill="#ff7d97" data-original="#FF7D97" class="active-path" style="fill:#B2F3E3" data-old_color="#ff7d97"/></g><g id="XMLID_1362_"><ellipse id="XMLID_221_" cx="256.01" cy="186.643" fill="#fff" rx="109.392" ry="109.392" transform="matrix(.707 -.707 .707 .707 -56.993 235.693)" data-original="#FFF" class="" data-old_color="#fff" style="fill:#FFFFFF"/></g><g id="XMLID_1361_"><path id="XMLID_213_" d="m292.343 289.048c-25.037 0-45.333-20.296-45.333-45.333s20.296-45.333 45.333-45.333c7.448 0 14.477 1.796 20.675 4.979-7.882-31.522-36.391-54.87-70.355-54.87-40.051 0-72.519 32.468-72.519 72.519 0 30.151 18.4 56.004 44.584 66.943" fill="#33d6f5" data-original="#33D6F5" class="" style="fill:#66FCF1" data-old_color="#33d6f5"/></g><g id="XMLID_215_"><path id="XMLID_216_" d="m509.081 480.42c-3.905-3.905-10.237-3.905-14.143 0-15.478 15.48-40.664 15.479-56.143 0-23.276-23.276-61.151-23.276-84.427 0-15.479 15.478-40.665 15.479-56.144 0-6.938-6.938-15.178-11.792-23.938-14.594l128.592-164.081c23.424-29.889 37.04-65.686 39.376-103.52 2.298-37.236-6.422-73.865-25.22-105.924-2.793-4.765-8.921-6.362-13.684-3.568-4.764 2.794-6.362 8.92-3.568 13.685 34.812 59.373 29.849 132.771-12.644 186.991l-131.128 167.314-131.126-167.315c-51.911-66.237-46.183-161.061 13.324-220.567 53.63-53.631 136.71-64.316 202.034-25.982 4.764 2.795 10.89 1.199 13.686-3.564 2.795-4.763 1.199-10.891-3.564-13.686-73.175-42.938-166.232-30.976-226.299 29.09-66.65 66.651-73.066 172.857-14.923 247.046l128.592 164.081c-8.759 2.802-16.999 7.655-23.938 14.594-15.479 15.48-40.665 15.479-56.143 0-23.277-23.276-61.151-23.276-84.428 0-15.479 15.479-40.665 15.479-56.143 0-3.905-3.905-10.237-3.905-14.143 0-3.905 3.905-3.905 10.237 0 14.143 11.64 11.64 26.924 17.457 42.214 17.457 15.286 0 30.577-5.821 42.213-17.457 15.479-15.479 40.664-15.48 56.144 0 23.276 23.276 61.151 23.276 84.427 0 15.48-15.479 40.666-15.479 56.144 0 23.277 23.276 61.151 23.276 84.428 0 15.478-15.48 40.665-15.48 56.143 0 23.277 23.276 61.15 23.277 84.428 0 3.906-3.906 3.906-10.238.001-14.143z" data-original="#B2F3E3" class=""/><path id="XMLID_249_" d="m256.01 67.252c-65.833 0-119.392 53.559-119.392 119.392s53.559 119.392 119.392 119.392 119.392-53.559 119.392-119.392-53.56-119.392-119.392-119.392zm0 218.783c-13.377 0-26.142-2.663-37.801-7.475-23.135-9.841-38.063-32.382-38.063-57.551 0-34.473 28.046-62.518 62.519-62.518 22.331 0 42.363 11.732 53.457 30.021-1.257-.087-2.517-.13-3.778-.13-30.511 0-55.333 24.822-55.333 55.333 0 16.959 7.676 32.153 19.729 42.311-.245.002-.486.009-.73.009zm36.579-6.975c-.082-.002-.162-.012-.245-.012-19.483 0-35.333-15.85-35.333-35.333s15.851-35.333 35.333-35.333c5.681 0 11.101 1.304 16.107 3.874 3.491 1.793 7.708 1.377 10.783-1.061 3.075-2.439 4.438-6.452 3.486-10.26-9.192-36.766-42.113-62.444-80.056-62.444-43.153 0-78.652 33.302-82.203 75.553-2.501-8.707-3.843-17.9-3.843-27.4 0-54.805 44.587-99.392 99.392-99.392s99.392 44.587 99.392 99.392c0 41.894-26.056 77.816-62.813 92.416z" data-original="#B2F3E3" class=""/><path id="XMLID_266_" d="m380.88 71.766c2.64 0 5.21-1.06 7.07-2.93 1.87-1.86 2.93-4.44 2.93-7.07s-1.06-5.2-2.93-7.07c-1.86-1.86-4.43-2.93-7.07-2.93-2.63 0-5.21 1.07-7.07 2.93s-2.93 4.44-2.93 7.07c0 2.64 1.07 5.21 2.93 7.07 1.86 1.87 4.44 2.93 7.07 2.93z" data-original="#B2F3E3" class=""/></g></g></g> </svg>