<?xml version="1.0" standalone="no"?>
<!DOCTYPE svg PUBLIC "-//W3C//DTD SVG 20010904//EN"
 "http://www.w3.org/TR/2001/REC-SVG-20010904/DTD/svg10.dtd">
<svg version="1.0" xmlns="http://www.w3.org/2000/svg"
 width="439.000000pt" height="439.000000pt" viewBox="0 0 439.000000 439.000000"
 preserveAspectRatio="xMidYMid meet">
<metadata>
Created by potrace 1.11, written by Peter Selinger 2001-2013
</metadata>
<g transform="translate(0.000000,439.000000) scale(0.100000,-0.100000)"
fill="#000000" stroke="none">
<path d="M445 3580 l-390 -5 2 -465 c1 -256 5 -873 8 -1372 l7 -908 347 0
c190 0 457 3 594 7 242 6 247 7 246 27 0 12 -26 138 -57 281 l-57 260 -208 3
-207 2 0 270 0 270 248 0 c136 0 352 3 480 7 l232 6 0 274 0 273 -485 0 -485
0 0 250 0 250 158 0 c87 0 342 3 565 7 l407 6 0 284 0 283 -507 -2 c-280 -2
-683 -5 -898 -8z"/>
<path d="M2478 3583 c-76 -2 -128 -8 -128 -13 0 -6 25 -60 55 -120 57 -114
116 -257 154 -372 l23 -68 308 0 c275 0 315 -2 369 -19 153 -47 224 -153 225
-331 1 -89 -1 -100 -32 -163 -38 -77 -79 -113 -171 -148 -51 -21 -77 -23 -305
-27 l-248 -4 7 -102 c4 -55 9 -180 9 -276 l2 -175 160 2 161 3 103 -203 c57
-111 115 -224 130 -252 15 -27 76 -146 136 -264 l108 -213 350 6 c193 4 353 9
355 12 3 3 1 13 -5 22 -37 59 -554 1002 -554 1009 0 4 28 23 61 42 188 108
321 285 380 506 18 66 22 108 22 235 -1 134 -4 168 -26 253 -34 126 -83 228
-155 319 -146 184 -395 305 -690 337 -93 10 -473 12 -804 4z"/>
<path d="M2102 3564 c4 -21 22 -23 26 -1 2 10 -3 17 -13 17 -10 0 -15 -6 -13
-16z"/>
<path d="M2203 3463 c-157 -289 -269 -634 -325 -1006 -19 -122 -22 -185 -22
-452 0 -272 2 -327 22 -452 28 -176 77 -376 127 -508 51 -138 144 -315 164
-315 9 1 34 23 55 50 22 28 43 50 47 50 4 0 24 -23 45 -50 21 -28 45 -49 53
-48 21 4 82 112 136 239 205 484 231 1160 70 1818 -37 152 -89 313 -142 441
-52 127 -154 320 -169 320 -7 0 -34 -39 -61 -87z"/>
<path d="M1573 1404 c-4 -12 77 -379 119 -531 l9 -33 94 0 c87 0 95 2 95 19 0
11 -27 131 -60 268 -33 136 -62 258 -65 271 -5 21 -10 22 -96 22 -72 0 -91 -3
-96 -16z"/>
<path d="M1260 1401 c0 -9 103 -484 116 -538 6 -22 10 -23 105 -23 80 0 99 3
99 15 0 12 -111 485 -126 538 -5 15 -18 17 -100 17 -52 0 -94 -4 -94 -9z"/>
</g>
</svg>
