<?xml version="1.0" encoding="utf-8"?>
<!-- Generator: Adobe Illustrator 15.0.0, SVG Export Plug-In . SVG Version: 6.00 Build 0)  -->
<!DOCTYPE svg PUBLIC "-//W3C//DTD SVG 1.1//EN" "http://www.w3.org/Graphics/SVG/1.1/DTD/svg11.dtd">
<svg version="1.1" id="Layer_1" xmlns="http://www.w3.org/2000/svg" xmlns:xlink="http://www.w3.org/1999/xlink" x="0px" y="0px"
	 width="313.101px" height="221.099px" viewBox="0 0 313.101 221.099" enable-background="new 0 0 313.101 221.099"
	 xml:space="preserve">
<g display="none">
	<defs>
		<rect id="SVGID_1_" width="1024" height="768"/>
	</defs>
	<clipPath id="SVGID_2_" display="inline">
		<use xlink:href="#SVGID_1_"  overflow="visible"/>
	</clipPath>
	
		<circle display="inline" clip-path="url(#SVGID_2_)" fill="none" stroke="#000000" stroke-width="14" stroke-miterlimit="10" cx="518" cy="397.869" r="177.865"/>
	
		<circle display="inline" clip-path="url(#SVGID_2_)" fill="none" stroke="#000000" stroke-width="14" stroke-miterlimit="10" cx="518" cy="397.869" r="277.73"/>
</g>
<text transform="matrix(0.3213 -0.947 0.947 0.3213 321.6201 349.1094)" display="none" font-family="'Brother-1816-Black'" font-size="58">E</text>
<text transform="matrix(0.4625 -0.8866 0.8866 0.4625 334.6904 313.3408)" display="none" font-family="'Brother-1816-Black'" font-size="58">I</text>
<text transform="matrix(0.5911 -0.8066 0.8066 0.5911 345.4229 292.3169)" display="none" font-family="'Brother-1816-Black'" font-size="58">S</text>
<text transform="matrix(0.7361 -0.6769 0.6769 0.7361 367.6035 262.3174)" display="none" font-family="'Brother-1816-Black'" font-size="58">B</text>
<text transform="matrix(0.8636 -0.5041 0.5041 0.8636 398.4434 234.209)" display="none" font-family="'Brother-1816-Black'" font-size="58">A</text>
<text transform="matrix(0.9482 -0.3177 0.3177 0.9482 436.0146 212.6875)" display="none" font-family="'Brother-1816-Black'" font-size="58">C</text>
<text transform="matrix(0.9951 -0.0987 0.0987 0.9951 475.2998 199.5205)" display="none" font-family="'Brother-1816-Black'" font-size="58">H</text>
<text transform="matrix(0.9984 0.0567 -0.0567 0.9984 522.3828 196.208)" display="none" font-family="'Brother-1816-Black'" font-size="58"> </text>
<text transform="matrix(0.99 0.1407 -0.1407 0.99 539.4453 197.2861)" display="none" font-family="'Brother-1816-Black'" font-size="58"> </text>
<text transform="matrix(0.96 0.2801 -0.2801 0.96 555.9688 198.9082)" display="none" font-family="'Brother-1816-Black'" font-size="58">R</text>
<text transform="matrix(0.9007 0.4344 -0.4344 0.9007 596.7627 212.0049)" display="none" font-family="'Brother-1816-Black'" font-size="58">I</text>
<text transform="matrix(0.8106 0.5856 -0.5856 0.8106 618.1758 221.541)" display="none" font-family="'Brother-1816-Black'" font-size="58.0001">D</text>
<text transform="matrix(0.6709 0.7415 -0.7415 0.6709 656.1543 250.1094)" display="none" font-family="'Brother-1816-Black'" font-size="58">E</text>
<text transform="matrix(0.5119 0.859 -0.859 0.5119 681.3711 278.1836)" display="none" font-family="'Brother-1816-Black'" font-size="58">R</text>
<text transform="matrix(0.3298 0.944 -0.944 0.3298 702.8379 315.585)" display="none" font-family="'Brother-1816-Black'" font-size="58">S</text>
<text transform="matrix(0.2044 0.9789 -0.9789 0.2044 713.8398 349.3584)" display="none" font-family="'Brother-1816-Black'" font-size="58"> </text>
<text transform="matrix(0.1206 0.9927 -0.9927 0.1206 717.2227 366.1035)" display="none" font-family="'Brother-1816-Black'" font-size="58"> </text>
<g display="none">
	<defs>
		<rect id="SVGID_3_" width="1024" height="768"/>
	</defs>
	<clipPath id="SVGID_4_" display="inline">
		<use xlink:href="#SVGID_3_"  overflow="visible"/>
	</clipPath>
	
		<circle display="inline" clip-path="url(#SVGID_4_)" fill="none" stroke="#000000" stroke-width="6" stroke-miterlimit="10" cx="518" cy="397.869" r="260.993"/>
</g>
<text transform="matrix(0.3033 0.9529 -0.9529 0.3033 291.9194 456.4551)" display="none" font-family="'Brother-1816-Black'" font-size="30">M</text>
<text transform="matrix(0.4117 0.9113 -0.9113 0.4117 300.7236 483.3252)" display="none" font-family="'Brother-1816-Black'" font-size="30">U</text>
<text transform="matrix(0.5082 0.8612 -0.8612 0.5082 311.3496 506.4736)" display="none" font-family="'Brother-1816-Black'" font-size="30">N</text>
<text transform="matrix(0.5748 0.8183 -0.8183 0.5748 324.2305 527.6357)" display="none" font-family="'Brother-1816-Black'" font-size="30">I</text>
<text transform="matrix(0.6322 0.7748 -0.7748 0.6322 331.124 537.6152)" display="none" font-family="'Brother-1816-Black'" font-size="30">C</text>
<text transform="matrix(0.7082 0.706 -0.706 0.7082 345.1147 554.7139)" display="none" font-family="'Brother-1816-Black'" font-size="30">H</text>
<text transform="matrix(0.7558 0.6548 -0.6548 0.7558 362.6079 571.7139)" display="none" font-family="'Brother-1816-Black'" font-size="30"> </text>
<text transform="matrix(0.7776 0.6288 -0.6288 0.7776 368.6157 576.9072)" display="none" font-family="'Brother-1816-Black'" font-size="30"> </text>
<text transform="matrix(0.7985 0.602 -0.602 0.7985 374.8003 581.8994)" display="none" font-family="'Brother-1816-Black'" font-size="30"> </text>
<text transform="matrix(0.8311 0.5562 -0.5562 0.8311 381.3198 586.9609)" display="none" font-family="'Brother-1816-Black'" font-size="30">S</text>
<text transform="matrix(0.8809 0.4733 -0.4733 0.8809 397.7466 597.9727)" display="none" font-family="'Brother-1816-Black'" font-size="30">U</text>
<text transform="matrix(0.9251 0.3798 -0.3798 0.9251 420.1973 609.8027)" display="none" font-family="'Brother-1816-Black'" font-size="30">R</text>
<text transform="matrix(0.955 0.2966 -0.2966 0.955 441.0044 618.1406)" display="none" font-family="'Brother-1816-Black'" font-size="30">F</text>
<text transform="matrix(0.9697 0.2445 -0.2445 0.9697 457.1533 623.0127)" display="none" font-family="'Brother-1816-Black'" font-size="30"> </text>
<text transform="matrix(0.9837 0.1799 -0.1799 0.9837 465.2271 625.2529)" display="none" font-family="'Brother-1816-Black'" font-size="30">G</text>
<text transform="matrix(0.9962 0.0871 -0.0871 0.9962 488.749 629.3447)" display="none" font-family="'Brother-1816-Black'" font-size="30">E</text>
<text transform="matrix(1 -0.0055 0.0055 1 508.5825 631.0615)" display="none" font-family="'Brother-1816-Black'" font-size="30">A</text>
<text transform="matrix(0.9945 -0.1047 0.1047 0.9945 532.7422 630.7666)" display="none" font-family="'Brother-1816-Black'" font-size="30">R</text>
<text transform="matrix(0.986 -0.1669 0.1669 0.986 553.4668 628.3623)" display="none" font-family="'Brother-1816-Black'" font-size="30"> </text>
<text transform="matrix(0.9728 -0.2315 0.2315 0.9728 561.7627 627.1602)" display="none" font-family="'Brother-1816-Black'" font-size="30">&amp;</text>
<text transform="matrix(0.9555 -0.2951 0.2951 0.9555 583.2695 621.7773)" display="none" font-family="'Brother-1816-Black'" font-size="30"> </text>
<text transform="matrix(0.9448 -0.3277 0.3277 0.9448 590.8535 619.4277)" display="none" font-family="'Brother-1816-Black'" font-size="30"> </text>
<text transform="matrix(0.9208 -0.3901 0.3901 0.9208 598.8623 616.8672)" display="none" font-family="'Brother-1816-Black'" font-size="30">A</text>
<text transform="matrix(0.8802 -0.4745 0.4745 0.8802 619.8633 607.8555)" display="none" font-family="'Brother-1816-Black'" font-size="30">C</text>
<text transform="matrix(0.8317 -0.5553 0.5553 0.8317 639.1797 597.3086)" display="none" font-family="'Brother-1816-Black'" font-size="30">C</text>
<text transform="matrix(0.7789 -0.6271 0.6271 0.7789 657.3008 585.0293)" display="none" font-family="'Brother-1816-Black'" font-size="30">E</text>
<text transform="matrix(0.7235 -0.6903 0.6903 0.7235 672.6895 572.5068)" display="none" font-family="'Brother-1816-Black'" font-size="30">S</text>
<text transform="matrix(0.6634 -0.7483 0.7483 0.6634 686.7969 558.9141)" display="none" font-family="'Brother-1816-Black'" font-size="30">S</text>
<text transform="matrix(0.5842 -0.8116 0.8116 0.5842 700.1797 543.8809)" display="none" font-family="'Brother-1816-Black'" font-size="30">O</text>
<text transform="matrix(0.4944 -0.8693 0.8693 0.4944 715.8428 521.6777)" display="none" font-family="'Brother-1816-Black'" font-size="30">R</text>
<text transform="matrix(0.4287 -0.9034 0.9034 0.4287 726.5908 502.2412)" display="none" font-family="'Brother-1816-Black'" font-size="30">I</text>
<text transform="matrix(0.3659 -0.9306 0.9306 0.3659 731.8311 491.332)" display="none" font-family="'Brother-1816-Black'" font-size="29.9999">E</text>
<text transform="matrix(0.2853 -0.9584 0.9584 0.2853 738.9971 472.8223)" display="none" font-family="'Brother-1816-Black'" font-size="30">S</text>
<text transform="matrix(0.2305 -0.9731 0.9731 0.2305 743.9873 455.4922)" display="none" font-family="'Brother-1816-Black'" font-size="30"> </text>
<g>
	<defs>
		<rect id="SVGID_5_" width="313.101" height="221.099"/>
	</defs>
	<clipPath id="SVGID_6_">
		<use xlink:href="#SVGID_5_"  overflow="visible"/>
	</clipPath>
	<path display="none" clip-path="url(#SVGID_6_)" d="M752.642,398.864c0,7.118-5.77,12.888-12.888,12.888
		s-12.888-5.77-12.888-12.888s5.77-12.888,12.888-12.888S752.642,391.746,752.642,398.864"/>
	<path display="none" clip-path="url(#SVGID_6_)" d="M309.642,398.864c0,7.118-5.77,12.888-12.888,12.888
		c-7.118,0-12.888-5.77-12.888-12.888s5.77-12.888,12.888-12.888C303.872,385.977,309.642,391.746,309.642,398.864"/>
	<path clip-path="url(#SVGID_6_)" d="M255.125,124.951c20.626-9.458,32.278-28.137,32.083-51.662
		c-0.158-18.93-7.065-34.455-19.977-44.896c-12.357-9.995-30.012-15.186-51.054-15.01l-48.035,0.374
		c6.112,10.546,11.396,22.945,15.618,36.352l33.701-0.169c16.917-0.141,26.69,8.499,26.817,23.706
		c0.172,20.606-15.866,23.816-25.442,23.896l-25.243,0.186c0.297,2.84,0.55,5.683,0.744,8.522c0.63,9.177,0.711,18.139,0.271,26.813
		l21.514-0.154l31.59,61.405l45.628-0.38L255.125,124.951z"/>
	<path clip-path="url(#SVGID_6_)" d="M161.784,15.625c-38.124,63.727-31.39,147.848-6.125,186.463l6.65-8.117l6.534,8.076
		C201.953,150.596,190.131,61.823,161.784,15.625 M163.8,135.955c-0.004,10.648-0.008,20.588-0.012,29.106
		c-0.056,8.52-0.104,15.619-0.135,20.589c-0.062,4.971-0.099,7.811-0.099,7.811s-0.082-2.839-0.227-7.809
		c-0.115-4.968-0.28-12.065-0.479-20.583c-0.145-8.518-0.314-18.456-0.496-29.103c-0.123-10.648-0.256-22.005-0.387-33.363
		c-0.057-11.358-0.114-22.717-0.167-33.365c0.004-10.649,0.008-20.588,0.012-29.107c0.057-8.519,0.103-15.619,0.135-20.589
		c0.062-4.97,0.199,4.527,0.199,4.527s-0.021-9.498,0.123-4.529c0.116,4.968,0.28,12.066,0.479,20.583
		c0.145,8.518,0.314,18.456,0.496,29.103c0.124,10.648,0.257,22.005,0.389,33.363C163.69,113.947,163.747,125.307,163.8,135.955"/>
	<polygon clip-path="url(#SVGID_6_)" points="127.692,157.744 116.203,157.84 125.002,194.335 136.493,194.239 	"/>
	<polygon clip-path="url(#SVGID_6_)" points="95.82,158.01 103.819,194.512 115.764,194.413 106.962,157.917 	"/>
	<polygon clip-path="url(#SVGID_6_)" points="59.141,158.314 58.828,120.737 122.939,120.205 122.645,84.862 58.534,85.396 
		58.242,50.266 133.853,49.636 133.549,13.071 15.254,14.055 16.762,195.235 94.622,194.588 86.623,158.086 	"/>
	<path display="none" clip-path="url(#SVGID_6_)" d="M380.667,571.734c0,1.893-1.534,3.427-3.427,3.427
		c-1.892,0-3.427-1.534-3.427-3.427s1.535-3.427,3.427-3.427C379.133,568.308,380.667,569.842,380.667,571.734"/>
</g>
</svg>
