<?xml version="1.0" encoding="UTF-8" standalone="no"?><!-- Generator: Gravit.io --><svg xmlns="http://www.w3.org/2000/svg" xmlns:xlink="http://www.w3.org/1999/xlink" style="isolation:isolate" viewBox="632.736 308.753 276.613 181.208" width="276.613pt" height="181.208pt"><path d=" M 712.127 453.38 L 719.828 489.946 L 734.774 489.943 L 726.27 453.378 L 712.127 453.38 Z " fill="rgb(41,41,41)"/><path d=" M 735.127 453.38 L 742.828 489.946 L 757.774 489.943 L 749.27 453.378 L 735.127 453.38 Z " fill="rgb(41,41,41)"/><path d=" M 742.184 385.861 L 675.434 385.668 L 675.574 345.435 L 751.429 345.373 C 754.622 335.936 758.569 326.564 763.343 317.381 C 763.349 317.369 763.355 317.357 763.362 317.345 C 763.373 317.323 763.385 317.301 763.397 317.279 C 764.089 315.95 764.797 314.624 765.524 313.303 C 765.588 313.186 765.652 313.068 765.717 312.951 C 765.845 312.719 765.981 312.49 766.11 312.259 C 766.682 311.233 767.26 310.209 767.853 309.189 C 767.938 309.044 768.016 308.898 768.101 308.753 L 632.736 308.773 L 632.768 489.961 L 710.63 489.947 L 702.93 453.381 L 675.446 453.386 L 675.374 420.808 L 740.73 420.797 C 740.73 420.797 740.73 420.797 740.73 420.796 C 740.73 419.654 740.73 418.488 740.73 417.337 C 740.412 407.12 740.859 396.568 742.184 385.861 Z " fill="rgb(41,41,41)"/><path d=" M 871.552 417.19 C 891.493 408.463 905.48 388.449 905.48 365.361 C 905.48 334.345 880.247 308.861 849.23 308.861 L 791.509 308.861 C 797.872 319.784 803.26 332.346 807.445 345.861 L 849.23 345.861 C 859.844 345.861 868.48 354.747 868.48 365.361 C 868.48 375.975 859.844 384.861 849.23 384.861 L 816.111 384.861 C 817.729 397.073 818.335 409.536 817.779 421.861 L 830.886 421.861 L 863.719 489.92 L 909.349 489.912 L 871.552 417.19 Z " fill="rgb(41,41,41)"/><path d=" M 780.678 412.715 C 780.678 417.945 780.589 423.091 780.551 428.072 C 780.446 438.033 780.285 447.33 780.091 455.298 C 779.924 463.267 779.651 469.908 779.522 474.556 C 779.458 476.88 779.358 478.707 779.311 479.952 C 779.258 481.197 779.23 481.861 779.23 481.861 C 779.23 481.861 779.202 481.197 779.149 479.952 C 779.102 478.707 779.002 476.88 778.938 474.556 C 778.809 469.908 778.536 463.267 778.369 455.298 C 778.175 447.33 778.014 438.033 777.909 428.072 C 777.871 423.091 777.782 417.945 777.782 412.715 C 777.765 407.486 777.748 402.173 777.731 396.861 C 777.748 391.548 777.766 386.236 777.783 381.006 C 777.827 375.777 777.871 370.63 777.913 365.65 C 777.983 360.669 778.05 355.855 778.114 351.29 C 778.206 346.724 778.293 342.408 778.373 338.423 C 778.542 330.455 778.811 323.814 778.94 319.166 C 779.003 316.841 779.103 313.015 779.149 311.77 C 779.202 310.525 779.23 309.861 779.23 309.861 C 779.23 309.861 779.258 310.525 779.311 311.77 C 779.357 313.015 779.457 316.841 779.52 319.166 C 779.649 323.814 779.918 330.455 780.087 338.423 C 780.167 342.408 780.254 346.724 780.346 351.29 C 780.41 355.855 780.477 360.669 780.547 365.65 C 780.589 370.63 780.633 375.777 780.677 381.006 C 780.694 386.236 780.712 391.548 780.729 396.861 C 780.712 402.173 780.695 407.486 780.678 412.715 Z  M 779.244 308.939 C 740.602 372.354 746.655 451.124 771.604 489.943 L 779.23 481.861 L 786.953 489.943 C 819.73 438.861 808.559 354.097 779.244 308.939 Z " fill="rgb(41,41,41)"/></svg>